<svg xmlns="http://www.w3.org/2000/svg">
  <symbol id="home" viewBox="0 0 16 16">
    <path d="M6.65625 13.3438H3.34375V8H1.34375L8 2L14.6562 8H12.6562V13.3438H9.34375V9.34375H6.65625V13.3438Z" fill="currentColor"/>
  </symbol>
  <symbol id="search" viewBox="0 0 16 16">
    <path d="M4.21875 8.46875C4.80208 9.05208 5.51042 9.34375 6.34375 9.34375C7.17708 9.34375 7.88542 9.05208 8.46875 8.46875C9.05208 7.88542 9.34375 7.17708 9.34375 6.34375C9.34375 5.51042 9.05208 4.80208 8.46875 4.21875C7.88542 3.63542 7.17708 3.34375 6.34375 3.34375C5.51042 3.34375 4.80208 3.63542 4.21875 4.21875C3.63542 4.80208 3.34375 5.51042 3.34375 6.34375C3.34375 7.17708 3.63542 7.88542 4.21875 8.46875ZM10.3438 9.34375L13.6562 12.6562L12.6562 13.6562L9.34375 10.3438V9.8125L9.15625 9.625C8.36458 10.3125 7.42708 10.6562 6.34375 10.6562C5.13542 10.6562 4.10417 10.2396 3.25 9.40625C2.41667 8.57292 2 7.55208 2 6.34375C2 5.13542 2.41667 4.11458 3.25 3.28125C4.10417 2.42708 5.13542 2 6.34375 2C7.55208 2 8.57292 2.42708 9.40625 3.28125C10.2396 4.11458 10.6562 5.13542 10.6562 6.34375C10.6562 6.78125 10.5521 7.28125 10.3438 7.84375C10.1354 8.38542 9.89583 8.82292 9.625 9.15625L9.8125 9.34375H10.3438Z" fill="currentColor"/>
  </symbol>
  <symbol id="chat" viewBox="0 0 16 16">
    <path d="M12 5.34375V4H4V5.34375H12ZM9.34375 9.34375V8H4V9.34375H9.34375ZM4 6V7.34375H12V6H4ZM13.3438 1.34375C13.6979 1.34375 14 1.47917 14.25 1.75C14.5208 2 14.6562 2.30208 14.6562 2.65625V10.6562C14.6562 11.0104 14.5208 11.3229 14.25 11.5938C14 11.8646 13.6979 12 13.3438 12H4L1.34375 14.6562V2.65625C1.34375 2.30208 1.46875 2 1.71875 1.75C1.98958 1.47917 2.30208 1.34375 2.65625 1.34375H13.3438Z" fill="currentColor"/>
  </symbol>
</svg>